<svg width="668" height="517" viewBox="0 0 668 517" fill="none" xmlns="http://www.w3.org/2000/svg">
<g filter="url(#filter0_d_16_50)">
<path d="M21.4366 269.343C17.6914 260.734 21.6347 250.718 30.2442 246.973L585.942 5.23797C590.5 3.2552 595.802 5.34282 597.785 9.90079L627.304 77.7583C631.049 86.3678 627.106 96.3833 618.496 100.129L54.5455 345.454L21.4366 269.343Z" fill="url(#paint0_linear_16_50)"/>
</g>
<g filter="url(#filter1_d_16_50)">
<path d="M15.8896 324.658C15.7925 315.27 23.3246 307.58 32.713 307.483L653.665 301.064C658.635 301.013 662.706 305 662.758 309.97L663.523 383.967C663.62 393.355 656.088 401.044 646.699 401.141L40.7464 407.406C27.4923 407.543 16.6365 396.909 16.4995 383.655L15.8896 324.658Z" fill="url(#paint1_linear_16_50)"/>
</g>
<path d="M132.762 202.679L221.013 164.892L232.762 267.892L144.512 305.679L132.762 202.679Z" fill="#2E2E2E"/>
<path d="M27.3408 247.72L81.6815 224.453L92.7627 325.892L38.422 349.16L27.3408 247.72Z" fill="#2E2E2E"/>
<g filter="url(#filter2_d_16_50)">
<path d="M15.4219 263.969C15.4219 245.299 37.2131 235.116 51.5353 247.093L195.568 367.545C211.264 380.671 202.11 406.24 181.65 406.421L37.6166 407.696C25.3907 407.804 15.4219 397.923 15.4219 385.696V263.969Z" fill="white"/>
</g>
<path d="M247.117 305.892H349.422L317.727 404.892H215.422L247.117 305.892Z" fill="#2E2E2E"/>
<path d="M403.88 302.892H505.422L473.963 402.892L372.422 403.892L403.88 302.892Z" fill="#2E2E2E"/>
<path d="M559.422 301.892L655.477 300.026C658.881 299.96 661.354 303.24 660.354 306.494L631.188 401.392L528.922 402.392L559.422 301.892Z" fill="#2E2E2E"/>
<path d="M268.762 143.679L357.013 105.892L368.762 208.892L280.512 246.679L268.762 143.679Z" fill="#2E2E2E"/>
<path d="M404.762 84.6793L493.013 46.892L504.762 149.892L416.512 187.679L404.762 84.6793Z" fill="#2E2E2E"/>
<path d="M541.807 23.8921L584.74 4.59153C589.8 2.31676 595.744 4.59604 597.987 9.67064L631.277 85.0104C633.549 90.1528 631.137 96.1571 625.938 98.2984L555.307 127.392L541.807 23.8921Z" fill="#2E2E2E"/>
<circle cx="35.4219" cy="385.892" r="17" fill="#323232"/>
<circle cx="35.4219" cy="385.892" r="9" fill="#D9D9D9"/>
<circle cx="35.4219" cy="263.892" r="17" fill="#323232"/>
<circle cx="35.4219" cy="263.892" r="9" fill="#D9D9D9"/>
<circle cx="182.422" cy="385.892" r="17" fill="#323232"/>
<circle cx="182.422" cy="385.892" r="9" fill="#D9D9D9"/>
<path d="M70.7819 436.452H75.6219C81.6352 437.039 86.3652 439.642 89.8119 444.262C90.1785 444.702 90.3985 444.959 90.4719 445.032C90.3985 445.032 91.6085 443.859 94.1019 441.512C97.2552 438.505 98.7585 437.075 98.6119 437.222L99.4919 436.342H100.372C101.325 436.342 101.875 436.562 102.022 437.002C102.095 437.149 100.885 442.355 98.3919 452.622C95.7519 463.182 94.4319 468.352 94.4319 468.132C94.2852 468.572 93.2585 468.792 91.3519 468.792H89.0419L88.7119 468.462C88.4185 468.169 88.3452 467.509 88.4919 466.482C88.4919 466.409 88.5285 466.042 88.6019 465.382C89.3352 460.102 88.8952 455.409 87.2819 451.302C85.5219 446.462 82.3685 443.602 77.8219 442.722C76.5019 442.429 74.4852 442.392 71.7719 442.612C71.5519 442.685 71.3685 442.722 71.2219 442.722C64.6952 443.675 58.7185 446.242 53.2919 450.422C45.9585 456.435 40.8985 465.859 38.1119 478.692C37.1585 482.579 36.6819 486.319 36.6819 489.912C36.6819 493.285 37.1219 496.109 38.0019 498.382C38.2952 499.335 38.8819 500.472 39.7619 501.792C42.9885 506.632 48.1585 509.382 55.2719 510.042C59.4519 510.482 63.4852 509.712 67.3719 507.732C73.6052 504.725 78.4452 499.775 81.8919 492.882C82.7719 491.049 83.5052 489.179 84.0919 487.272C84.4585 486.099 84.8252 485.475 85.1919 485.402C85.4119 485.329 86.0352 485.292 87.0619 485.292C88.7485 485.292 89.6652 485.512 89.8119 485.952C89.8852 486.245 89.8119 486.759 89.5919 487.492C88.3452 491.819 86.4019 495.815 83.7619 499.482C81.7085 502.415 79.4352 504.909 76.9419 506.962C70.7085 512.462 63.7785 515.542 56.1519 516.202C53.9519 516.495 51.6785 516.422 49.3319 515.982C42.1452 515.102 36.3519 512.279 31.9519 507.512C27.6985 503.039 25.1319 497.465 24.2519 490.792C23.8119 487.785 23.8485 484.375 24.3619 480.562C25.6819 471.102 29.7885 462.375 36.6819 454.382C39.2485 451.595 41.3752 449.542 43.0619 448.222C50.3952 442.135 58.2785 438.359 66.7119 436.892C67.0785 436.819 68.4352 436.672 70.7819 436.452ZM122.575 441.402C124.041 441.035 125.435 441.145 126.755 441.732C128.735 442.685 129.615 444.372 129.395 446.792C129.321 447.159 129.248 447.489 129.175 447.782C128.368 450.569 126.535 452.439 123.675 453.392C123.528 453.392 123.381 453.429 123.235 453.502C121.108 454.089 119.311 453.649 117.845 452.182C116.158 450.422 115.975 448.295 117.295 445.802C118.321 443.455 120.081 441.989 122.575 441.402ZM112.785 465.492C113.811 465.272 115.131 465.235 116.745 465.382C120.998 466.189 123.675 468.499 124.775 472.312C125.141 473.852 125.141 475.465 124.775 477.152L119.825 490.572C116.525 499.225 114.838 503.735 114.765 504.102C113.885 506.962 113.848 508.795 114.655 509.602C114.875 509.749 115.278 509.822 115.865 509.822C116.671 509.822 117.185 509.785 117.405 509.712C120.558 508.612 122.978 505.349 124.665 499.922C124.811 499.629 124.921 499.299 124.995 498.932C125.361 497.832 125.728 497.245 126.095 497.172C126.315 497.099 126.975 497.062 128.075 497.062C129.468 497.062 130.238 497.135 130.385 497.282C130.751 497.575 130.825 498.199 130.605 499.152C129.211 503.992 127.011 507.915 124.005 510.922C121.951 512.829 119.861 514.112 117.735 514.772C117.001 514.919 116.011 514.992 114.765 514.992C113.445 514.992 112.491 514.919 111.905 514.772C109.558 514.185 107.798 513.122 106.625 511.582C105.745 510.555 105.158 509.382 104.865 508.062C104.498 506.449 104.498 504.799 104.865 503.112L109.925 489.582C113.298 480.562 115.095 475.612 115.315 474.732C115.608 473.485 115.608 472.385 115.315 471.432C114.948 470.552 114.141 470.259 112.895 470.552C110.695 470.992 108.715 472.679 106.955 475.612C105.855 477.445 104.975 479.682 104.315 482.322C104.095 482.762 103.948 483.019 103.875 483.092C103.728 483.239 102.958 483.312 101.565 483.312H99.4747L99.1447 482.982C98.778 482.689 98.8147 481.919 99.2547 480.672C101.088 474.512 104.058 470.075 108.165 467.362C108.531 467.142 108.935 466.922 109.375 466.702C110.695 465.969 111.831 465.565 112.785 465.492ZM147.955 465.492C149.055 465.199 150.558 465.199 152.465 465.492C156.645 466.519 159.358 468.792 160.605 472.312L160.825 472.972L162.035 471.872C163.428 470.479 164.711 469.415 165.885 468.682C169.551 466.335 173.585 465.199 177.985 465.272C182.165 465.492 185.355 466.665 187.555 468.792C190.415 471.579 191.405 475.649 190.525 481.002C189.791 485.255 187.775 491.709 184.475 500.362C183.228 503.809 182.605 506.229 182.605 507.622C182.605 508.795 182.861 509.529 183.375 509.822C183.961 510.115 184.878 510.042 186.125 509.602C188.985 508.502 191.295 505.459 193.055 500.472C193.201 499.959 193.348 499.445 193.495 498.932C193.861 497.832 194.228 497.245 194.595 497.172C194.815 497.099 195.475 497.062 196.575 497.062C197.968 497.062 198.775 497.135 198.995 497.282C199.141 497.429 199.215 497.722 199.215 498.162C199.215 499.409 198.481 501.499 197.015 504.432C195.695 507.145 194.081 509.382 192.175 511.142C189.315 513.855 186.198 515.175 182.825 515.102C178.645 514.882 175.711 513.159 174.025 509.932C173.365 508.612 173.035 507.109 173.035 505.422C173.108 503.955 173.548 502.232 174.355 500.252C177.141 492.625 178.938 487.089 179.745 483.642C180.918 479.242 181.138 475.869 180.405 473.522C179.818 471.469 178.388 470.442 176.115 470.442C169.955 470.442 164.748 473.999 160.495 481.112L159.835 482.322L156.205 496.622C153.931 506.009 152.611 511.032 152.245 511.692C151.218 513.892 149.495 515.029 147.075 515.102C145.901 515.102 144.875 514.772 143.995 514.112C143.628 513.965 143.298 513.562 143.005 512.902C142.638 512.169 142.601 511.069 142.895 509.602C143.261 507.915 144.545 502.635 146.745 493.762C149.605 482.395 151.071 476.492 151.145 476.052C151.585 472.679 150.998 470.809 149.385 470.442C147.331 470.222 145.608 471.909 144.215 475.502C143.701 476.822 143.188 478.545 142.675 480.672L142.125 482.652C141.318 483.092 140.438 483.312 139.485 483.312H137.395L137.065 482.982C136.771 482.689 136.771 481.919 137.065 480.672C139.705 471.505 143.335 466.445 147.955 465.492ZM232.942 465.382H237.342C242.622 466.189 245.995 468.609 247.462 472.642C247.902 474.109 247.975 475.612 247.682 477.152C246.435 482.799 242.365 486.502 235.472 488.262C232.392 489.142 227.295 489.692 220.182 489.912H216.662L216.442 490.572C216.148 491.819 215.782 493.725 215.342 496.292C215.048 498.639 215.048 500.729 215.342 502.562C215.782 504.689 216.698 506.412 218.092 507.732C219.778 509.272 222.052 510.005 224.912 509.932C230.778 509.565 235.728 507.879 239.762 504.872C241.155 503.992 242.328 502.929 243.282 501.682C244.088 500.729 244.748 500.435 245.262 500.802C245.482 500.949 245.885 501.315 246.472 501.902C247.498 503.002 247.975 503.699 247.902 503.992C247.828 504.359 247.022 505.312 245.482 506.852C240.862 511.252 234.922 513.892 227.662 514.772C225.168 515.212 222.968 515.285 221.062 514.992C214.168 514.259 209.365 510.775 206.652 504.542C206.138 503.442 205.735 502.269 205.442 501.022C204.928 499.189 204.672 496.879 204.672 494.092C204.745 489.765 205.698 485.805 207.532 482.212C208.852 479.499 210.648 477.005 212.922 474.732C214.022 473.705 215.378 472.569 216.992 471.322C221.465 468.022 226.305 466.079 231.512 465.492C231.878 465.419 232.355 465.382 232.942 465.382ZM235.912 470.552C233.198 470.039 230.338 470.552 227.332 472.092C223.005 474.072 219.998 477.885 218.312 483.532C218.165 484.119 218.055 484.449 217.982 484.522C217.982 484.669 219.192 484.742 221.612 484.742C226.378 484.669 229.972 484.339 232.392 483.752C237.378 482.725 240.312 480.599 241.192 477.372C241.485 476.199 241.448 475.172 241.082 474.292C240.422 472.385 238.698 471.139 235.912 470.552ZM265.152 465.382C266.472 465.235 267.975 465.272 269.662 465.492C273.842 466.445 276.555 468.719 277.802 472.312L278.022 472.972L279.232 471.872C280.625 470.479 281.909 469.415 283.082 468.682C286.749 466.335 290.782 465.199 295.182 465.272C299.362 465.492 302.552 466.665 304.752 468.792C305.925 469.892 306.842 471.395 307.502 473.302L307.612 473.962L309.042 472.532C310.509 470.919 312.012 469.635 313.552 468.682C317.219 466.335 321.252 465.199 325.652 465.272C329.832 465.492 333.022 466.665 335.222 468.792C338.082 471.579 339.072 475.649 338.192 481.002C337.459 485.255 335.442 491.709 332.142 500.362C330.895 503.809 330.272 506.229 330.272 507.622C330.272 509.089 330.749 509.859 331.702 509.932C331.849 509.932 332.032 509.932 332.252 509.932C333.792 509.785 335.222 509.015 336.542 507.622C338.669 505.495 340.209 502.599 341.162 498.932C341.529 497.832 341.895 497.245 342.262 497.172C342.482 497.099 343.142 497.062 344.242 497.062C345.635 497.062 346.442 497.135 346.662 497.282C346.809 497.429 346.882 497.722 346.882 498.162C346.882 499.775 345.855 502.415 343.802 506.082C343.582 506.449 343.362 506.815 343.142 507.182C340.722 510.922 337.825 513.379 334.452 514.552C331.445 515.505 328.512 515.249 325.652 513.782C324.625 513.269 323.855 512.719 323.342 512.132C322.682 511.472 322.169 510.775 321.802 510.042C321.069 508.649 320.739 507.182 320.812 505.642C320.812 504.102 321.252 502.122 322.132 499.702C326.825 487.235 328.952 479.169 328.512 475.502C328.292 473.375 327.595 471.945 326.422 471.212C325.615 470.552 324.185 470.332 322.132 470.552C316.705 471.212 312.049 474.732 308.162 481.112L307.502 482.322L303.872 496.622C301.599 506.009 300.279 511.032 299.912 511.692C298.885 513.892 297.162 515.029 294.742 515.102C293.569 515.102 292.542 514.772 291.662 514.112C291.295 513.965 290.965 513.562 290.672 512.902C290.305 512.095 290.305 510.885 290.672 509.272C290.965 507.805 292.029 503.369 293.862 495.962C296.355 486.135 297.639 481.002 297.712 480.562C298.299 477.555 298.262 475.209 297.602 473.522C297.015 471.469 295.585 470.442 293.312 470.442C287.152 470.442 281.945 473.999 277.692 481.112L277.032 482.322L273.402 496.622C271.129 506.009 269.809 511.032 269.442 511.692C268.415 513.892 266.692 515.029 264.272 515.102C263.099 515.102 262.072 514.772 261.192 514.112C260.825 513.965 260.495 513.562 260.202 512.902C259.835 512.169 259.799 511.069 260.092 509.602C260.459 507.915 261.742 502.635 263.942 493.762C266.802 482.395 268.269 476.492 268.342 476.052C268.855 472.459 268.159 470.589 266.252 470.442C266.032 470.442 265.812 470.442 265.592 470.442C263.465 470.882 261.559 474.292 259.872 480.672L259.322 482.652C258.515 483.092 257.635 483.312 256.682 483.312H254.592L254.262 482.982C253.969 482.689 253.969 481.919 254.262 480.672C255.729 475.612 257.452 471.799 259.432 469.232C260.972 467.252 262.879 465.969 265.152 465.382ZM378.004 465.382C378.077 465.309 378.737 465.272 379.984 465.272C381.304 465.419 382.221 465.529 382.734 465.602C385.154 466.335 387.134 467.582 388.674 469.342L389.224 470.112L389.994 469.342C391.974 467.509 394.027 466.995 396.154 467.802C397.254 468.169 397.987 468.865 398.354 469.892C398.647 470.772 398.464 472.605 397.804 475.392C397.364 477.299 396.337 481.442 394.724 487.822C392.157 497.869 390.801 503.405 390.654 504.432C390.361 506.045 390.397 507.365 390.764 508.392C391.204 509.565 392.047 510.079 393.294 509.932C394.174 509.859 395.091 509.162 396.044 507.842C397.071 506.302 398.134 503.442 399.234 499.262C399.527 498.015 399.857 497.319 400.224 497.172C400.444 497.099 401.141 497.062 402.314 497.062C403.707 497.062 404.477 497.135 404.624 497.282C405.064 497.575 405.064 498.419 404.624 499.812C402.717 506.632 400.261 511.142 397.254 513.342C396.081 514.222 394.907 514.772 393.734 514.992C392.194 515.212 390.544 515.102 388.784 514.662C385.484 513.929 383.137 512.205 381.744 509.492L381.414 508.722L380.754 509.272C374.961 514.259 369.241 516.019 363.594 514.552C361.981 514.112 360.477 513.452 359.084 512.572C354.904 509.639 352.521 505.275 351.934 499.482C351.641 497.502 351.677 495.375 352.044 493.102C352.997 486.942 355.527 481.295 359.634 476.162C361.027 474.475 362.567 472.935 364.254 471.542C368.434 468.095 372.651 466.079 376.904 465.492C377.197 465.419 377.564 465.382 378.004 465.382ZM381.194 470.772C379.727 470.405 378.517 470.332 377.564 470.552C375.291 470.992 373.091 472.275 370.964 474.402C368.837 476.675 366.967 480.709 365.354 486.502C364.987 487.822 364.584 489.362 364.144 491.122C362.897 496.109 362.274 499.812 362.274 502.232C362.274 504.505 362.751 506.302 363.704 507.622C365.097 509.455 367.041 510.189 369.534 509.822C372.321 509.529 375.181 507.915 378.114 504.982C379.434 503.662 380.424 502.452 381.084 501.352C381.084 501.572 382.074 497.722 384.054 489.802L386.804 478.472L386.694 477.702C385.741 474.035 383.907 471.725 381.194 470.772ZM428.857 438.872C429.003 438.799 435.457 438.762 448.217 438.762C461.563 438.835 468.86 438.982 470.107 439.202C470.253 439.275 470.583 439.349 471.097 439.422C477.843 440.669 482.72 443.565 485.727 448.112C487.413 450.605 488.22 453.319 488.147 456.252C488.073 458.305 487.523 460.395 486.497 462.522C485.47 464.575 484.04 466.482 482.207 468.242C478.613 471.835 473.663 474.732 467.357 476.932C467.283 476.932 467.393 477.042 467.687 477.262C467.833 477.409 467.98 477.519 468.127 477.592C470.693 479.352 472.49 481.699 473.517 484.632C474.177 486.685 474.36 489.545 474.067 493.212C473.993 494.019 473.883 495.045 473.737 496.292C473.37 500.105 473.187 502.892 473.187 504.652C473.26 507.365 473.773 509.199 474.727 510.152C475.387 510.739 476.377 511.032 477.697 511.032C478.503 511.032 479.09 510.959 479.457 510.812C480.337 510.445 481.217 509.749 482.097 508.722C483.05 507.329 483.783 505.899 484.297 504.432C484.663 503.259 485.103 502.599 485.617 502.452C485.91 502.379 486.46 502.342 487.267 502.342C488.66 502.342 489.503 502.525 489.797 502.892C490.31 503.479 489.943 505.019 488.697 507.512C486.497 512.132 483.49 514.955 479.677 515.982C479.09 516.129 477.99 516.202 476.377 516.202C474.47 516.202 473.223 516.165 472.637 516.092C465.523 515.139 461.233 512.205 459.767 507.292C459.327 505.825 459.253 504.175 459.547 502.342C459.913 500.509 460.427 498.272 461.087 495.632C461.82 492.699 462.333 490.499 462.627 489.032C462.993 487.052 462.7 485.109 461.747 483.202C461.38 482.542 460.903 481.919 460.317 481.332C459.07 480.159 457.53 479.389 455.697 479.022C455.403 478.949 452.91 478.912 448.217 478.912H441.397L441.287 479.352C441.287 479.279 440.113 483.935 437.767 493.322C435.493 502.489 434.393 507.109 434.467 507.182C434.613 507.329 434.87 507.402 435.237 507.402C436.117 507.622 438.317 507.732 441.837 507.732C443.67 507.732 444.733 507.989 445.027 508.502C445.1 508.795 444.99 509.639 444.697 511.032C444.33 512.425 444 513.269 443.707 513.562L443.377 513.892H441.727C433.733 513.525 424.567 513.489 414.227 513.782C411.807 513.855 410.45 513.635 410.157 513.122C410.083 512.902 410.193 512.059 410.487 510.592C410.927 509.125 411.22 508.282 411.367 508.062L411.807 507.732H415.547C419.653 507.659 421.963 507.365 422.477 506.852C422.697 506.705 425.337 496.512 430.397 476.272C435.457 456.032 437.987 445.839 437.987 445.692C437.987 445.619 437.913 445.509 437.767 445.362C437.473 445.215 435.493 445.069 431.827 444.922H428.087L427.647 444.482C427.427 444.262 427.317 444.042 427.317 443.822L428.527 439.312C428.527 439.239 428.637 439.092 428.857 438.872ZM466.147 445.142C465.707 445.069 463.14 444.995 458.447 444.922L451.187 445.032C450.453 445.105 449.977 445.325 449.757 445.692L442.717 473.742H450.087C455.44 473.669 458.373 473.595 458.887 473.522C465.56 472.569 469.997 469.855 472.197 465.382C473.37 462.962 474.323 459.809 475.057 455.922C475.35 454.015 475.35 452.402 475.057 451.082C474.177 447.855 471.207 445.875 466.147 445.142ZM519.694 465.382C519.767 465.309 520.427 465.272 521.674 465.272C522.994 465.419 523.91 465.529 524.424 465.602C526.844 466.335 528.824 467.582 530.364 469.342L530.914 470.112L531.684 469.342C533.664 467.509 535.717 466.995 537.844 467.802C538.944 468.169 539.677 468.865 540.044 469.892C540.337 470.772 540.154 472.605 539.494 475.392C539.054 477.299 538.027 481.442 536.414 487.822C533.847 497.869 532.49 503.405 532.344 504.432C532.05 506.045 532.087 507.365 532.454 508.392C532.894 509.565 533.737 510.079 534.984 509.932C535.864 509.859 536.78 509.162 537.734 507.842C538.76 506.302 539.824 503.442 540.924 499.262C541.217 498.015 541.547 497.319 541.914 497.172C542.134 497.099 542.83 497.062 544.004 497.062C545.397 497.062 546.167 497.135 546.314 497.282C546.754 497.575 546.754 498.419 546.314 499.812C544.407 506.632 541.95 511.142 538.944 513.342C537.77 514.222 536.597 514.772 535.424 514.992C533.884 515.212 532.234 515.102 530.474 514.662C527.174 513.929 524.827 512.205 523.434 509.492L523.104 508.722L522.444 509.272C516.65 514.259 510.93 516.019 505.284 514.552C503.67 514.112 502.167 513.452 500.774 512.572C496.594 509.639 494.21 505.275 493.624 499.482C493.33 497.502 493.367 495.375 493.734 493.102C494.687 486.942 497.217 481.295 501.324 476.162C502.717 474.475 504.257 472.935 505.944 471.542C510.124 468.095 514.34 466.079 518.594 465.492C518.887 465.419 519.254 465.382 519.694 465.382ZM522.884 470.772C521.417 470.405 520.207 470.332 519.254 470.552C516.98 470.992 514.78 472.275 512.654 474.402C510.527 476.675 508.657 480.709 507.044 486.502C506.677 487.822 506.274 489.362 505.834 491.122C504.587 496.109 503.964 499.812 503.964 502.232C503.964 504.505 504.44 506.302 505.394 507.622C506.787 509.455 508.73 510.189 511.224 509.822C514.01 509.529 516.87 507.915 519.804 504.982C521.124 503.662 522.114 502.452 522.774 501.352C522.774 501.572 523.764 497.722 525.744 489.802L528.494 478.472L528.384 477.702C527.43 474.035 525.597 471.725 522.884 470.772ZM572.306 445.142C573.406 444.849 574.433 444.922 575.386 445.362C576.486 445.729 577.22 446.425 577.586 447.452C577.88 448.332 577.66 450.165 576.926 452.952C576.706 453.905 576.303 455.555 575.716 457.902C574.396 463.402 573.7 466.189 573.626 466.262C573.626 466.409 575.386 466.482 578.906 466.482H584.186L584.516 466.812C584.956 467.105 584.956 468.059 584.516 469.672C584.296 470.772 584.076 471.542 583.856 471.982C583.636 472.349 582.903 472.569 581.656 472.642C581.07 472.642 579.713 472.642 577.586 472.642H572.086L571.976 473.082C571.976 473.302 570.693 478.399 568.126 488.372C565.78 497.759 564.496 503.112 564.276 504.432C563.983 506.045 564.02 507.365 564.386 508.392C564.9 509.639 566.11 510.115 568.016 509.822C571.17 509.162 573.993 506.925 576.486 503.112C577.733 501.205 578.54 499.665 578.906 498.492C579.273 497.685 579.676 497.245 580.116 497.172C580.41 497.099 581.033 497.062 581.986 497.062C583.38 497.062 584.186 497.135 584.406 497.282C584.846 497.722 584.736 498.602 584.076 499.922C582.243 503.882 579.97 507.182 577.256 509.822C575.716 511.362 574.176 512.499 572.636 513.232C571.463 513.892 570.18 514.405 568.786 514.772C568.126 514.919 567.1 514.992 565.706 514.992C564.313 514.992 563.213 514.882 562.406 514.662C559.766 514.002 557.713 512.755 556.246 510.922C555.293 509.602 554.706 508.245 554.486 506.852C554.34 506.265 554.266 505.422 554.266 504.322L554.376 502.782L558.116 487.822C560.61 477.995 561.856 472.972 561.856 472.752C561.856 472.679 560.096 472.642 556.576 472.642C552.91 472.642 550.93 472.385 550.636 471.872C550.49 471.652 550.563 470.845 550.856 469.452C551.296 467.985 551.553 467.215 551.626 467.142C551.846 466.775 552.58 466.555 553.826 466.482C554.413 466.482 555.77 466.482 557.896 466.482H563.506L565.596 457.792C567.136 451.559 568.163 448.149 568.676 447.562C568.823 447.415 569.043 447.195 569.336 446.902C570.143 446.095 571.133 445.509 572.306 445.142ZM620.412 465.382H624.812C630.092 466.189 633.466 468.609 634.932 472.642C635.372 474.109 635.446 475.612 635.152 477.152C633.906 482.799 629.836 486.502 622.942 488.262C619.862 489.142 614.766 489.692 607.652 489.912H604.132L603.912 490.572C603.619 491.819 603.252 493.725 602.812 496.292C602.519 498.639 602.519 500.729 602.812 502.562C603.252 504.689 604.169 506.412 605.562 507.732C607.249 509.272 609.522 510.005 612.382 509.932C618.249 509.565 623.199 507.879 627.232 504.872C628.626 503.992 629.799 502.929 630.752 501.682C631.559 500.729 632.219 500.435 632.732 500.802C632.952 500.949 633.356 501.315 633.942 501.902C634.969 503.002 635.446 503.699 635.372 503.992C635.299 504.359 634.492 505.312 632.952 506.852C628.332 511.252 622.392 513.892 615.132 514.772C612.639 515.212 610.439 515.285 608.532 514.992C601.639 514.259 596.836 510.775 594.122 504.542C593.609 503.442 593.206 502.269 592.912 501.022C592.399 499.189 592.142 496.879 592.142 494.092C592.216 489.765 593.169 485.805 595.002 482.212C596.322 479.499 598.119 477.005 600.392 474.732C601.492 473.705 602.849 472.569 604.462 471.322C608.936 468.022 613.776 466.079 618.982 465.492C619.349 465.419 619.826 465.382 620.412 465.382ZM623.382 470.552C620.669 470.039 617.809 470.552 614.802 472.092C610.476 474.072 607.469 477.885 605.782 483.532C605.636 484.119 605.526 484.449 605.452 484.522C605.452 484.669 606.662 484.742 609.082 484.742C613.849 484.669 617.442 484.339 619.862 483.752C624.849 482.725 627.782 480.599 628.662 477.372C628.956 476.199 628.919 475.172 628.552 474.292C627.892 472.385 626.169 471.139 623.382 470.552Z" fill="black"/>
<defs>
<filter id="filter0_d_16_50" x="16.021" y="4.48862" width="616.698" height="348.965" filterUnits="userSpaceOnUse" color-interpolation-filters="sRGB">
<feFlood flood-opacity="0" result="BackgroundImageFix"/>
<feColorMatrix in="SourceAlpha" type="matrix" values="0 0 0 0 0 0 0 0 0 0 0 0 0 0 0 0 0 0 127 0" result="hardAlpha"/>
<feOffset dy="4"/>
<feGaussianBlur stdDeviation="2"/>
<feComposite in2="hardAlpha" operator="out"/>
<feColorMatrix type="matrix" values="0 0 0 0 0 0 0 0 0 0 0 0 0 0 0 0 0 0 0.25 0"/>
<feBlend mode="normal" in2="BackgroundImageFix" result="effect1_dropShadow_16_50"/>
<feBlend mode="normal" in="SourceGraphic" in2="effect1_dropShadow_16_50" result="shape"/>
</filter>
<filter id="filter1_d_16_50" x="11.8887" y="301.063" width="655.635" height="114.344" filterUnits="userSpaceOnUse" color-interpolation-filters="sRGB">
<feFlood flood-opacity="0" result="BackgroundImageFix"/>
<feColorMatrix in="SourceAlpha" type="matrix" values="0 0 0 0 0 0 0 0 0 0 0 0 0 0 0 0 0 0 127 0" result="hardAlpha"/>
<feOffset dy="4"/>
<feGaussianBlur stdDeviation="2"/>
<feComposite in2="hardAlpha" operator="out"/>
<feColorMatrix type="matrix" values="0 0 0 0 0 0 0 0 0 0 0 0 0 0 0 0 0 0 0.25 0"/>
<feBlend mode="normal" in2="BackgroundImageFix" result="effect1_dropShadow_16_50"/>
<feBlend mode="normal" in="SourceGraphic" in2="effect1_dropShadow_16_50" result="shape"/>
</filter>
<filter id="filter2_d_16_50" x="11.4219" y="241.927" width="196.075" height="173.769" filterUnits="userSpaceOnUse" color-interpolation-filters="sRGB">
<feFlood flood-opacity="0" result="BackgroundImageFix"/>
<feColorMatrix in="SourceAlpha" type="matrix" values="0 0 0 0 0 0 0 0 0 0 0 0 0 0 0 0 0 0 127 0" result="hardAlpha"/>
<feOffset dy="4"/>
<feGaussianBlur stdDeviation="2"/>
<feComposite in2="hardAlpha" operator="out"/>
<feColorMatrix type="matrix" values="0 0 0 0 0 0 0 0 0 0 0 0 0 0 0 0 0 0 0.25 0"/>
<feBlend mode="normal" in2="BackgroundImageFix" result="effect1_dropShadow_16_50"/>
<feBlend mode="normal" in="SourceGraphic" in2="effect1_dropShadow_16_50" result="shape"/>
</filter>
<linearGradient id="paint0_linear_16_50" x1="34.6004" y1="299.604" x2="614.14" y2="47.4975" gradientUnits="userSpaceOnUse">
<stop stop-color="#00B3FF"/>
<stop offset="1" stop-color="#FA00FF"/>
</linearGradient>
<linearGradient id="paint1_linear_16_50" x1="16.2307" y1="357.657" x2="663.182" y2="350.968" gradientUnits="userSpaceOnUse">
<stop stop-color="#00B3FF"/>
<stop offset="1" stop-color="#FA00FF"/>
</linearGradient>
</defs>
</svg>
